<svg width="18" height="14" viewBox="0 0 18 14" fill="none" xmlns="http://www.w3.org/2000/svg">
<path fill-rule="evenodd" clip-rule="evenodd" d="M0.75 0.125C0.370304 0.125 0.0625 0.432804 0.0625 0.8125V12.5C0.0625 12.8647 0.207366 13.2144 0.465228 13.4723C0.723092 13.7301 1.07283 13.875 1.4375 13.875H16.5625C16.9272 13.875 17.2769 13.7301 17.5348 13.4723C17.7926 13.2144 17.9375 12.8647 17.9375 12.5V0.8125C17.9375 0.432804 17.6297 0.125 17.25 0.125H0.75ZM2.51743 1.5H15.4826L10.0439 6.48543C10.0386 6.49017 10.0333 6.495 10.0281 6.49992L9 7.44236L2.51743 1.5ZM11.5174 7L16.5625 2.37535V11.6246L11.5174 7ZM10.5 7.93264L15.4826 12.5H2.51746L7.50001 7.93265L8.53544 8.88179C8.79828 9.12274 9.20172 9.12274 9.46456 8.88179L10.5 7.93264ZM6.48258 7.00001L1.4375 11.6247V2.37535L6.48258 7.00001Z" fill="#808080"/>
</svg>
