<svg width="30" height="24" viewBox="0 0 30 24" fill="none" xmlns="http://www.w3.org/2000/svg">
<path fill-rule="evenodd" clip-rule="evenodd" d="M5.73994 0.32748C5.36843 -0.0811779 4.73598 -0.111295 4.32733 0.260212C3.91867 0.631719 3.88855 1.26417 4.26006 1.67283L6.6635 4.31661C4.53395 5.62506 2.97649 7.26777 1.91982 8.64679C1.30016 9.4555 0.847111 10.1808 0.54697 10.7081C0.396748 10.9721 0.284382 11.1872 0.208218 11.3394C0.170123 11.4155 0.141046 11.4759 0.120782 11.5189C0.110649 11.5404 0.102716 11.5576 0.0969568 11.5702L0.0899446 11.5856L0.0876547 11.5907L0.0868126 11.5926C0.0866608 11.593 0.086172 11.5941 1 12.0002L0.0861721 11.5941C-0.0287354 11.8526 -0.0287235 12.1478 0.0862048 12.4063L1 12.0002C0.0862048 12.4063 0.0864045 12.4068 0.0866196 12.4073L0.0871279 12.4084L0.0884257 12.4113L0.0921481 12.4195L0.104124 12.4457C0.114129 12.4673 0.128193 12.4973 0.14638 12.5351C0.182748 12.6106 0.235647 12.7174 0.305595 12.8509C0.445419 13.1178 0.653823 13.4925 0.935043 13.9391C1.4965 14.8307 2.3539 16.0179 3.54293 17.2068C5.92619 19.5898 9.66564 21.998 14.9961 21.9992C17.2412 22.0165 19.461 21.5537 21.5078 20.6453L24.2601 23.6728C24.6316 24.0815 25.264 24.1116 25.6727 23.7401C26.0813 23.3686 26.1114 22.7361 25.7399 22.3275L22.5037 18.7676C22.4943 18.7568 22.4847 18.7462 22.4749 18.7359L19.1049 15.0289L19.1034 15.0273L12.3765 7.62768L12.3753 7.62634L9.00473 3.91875C8.99439 3.90681 8.98379 3.89516 8.97296 3.8838L5.73994 0.32748ZM3.50736 9.86323C4.51511 8.54804 6.00419 7.00038 8.03621 5.82659L10.2805 8.29529C9.51639 9.2688 9.06666 10.4622 9.00707 11.7147C8.93146 13.3041 9.4903 14.8585 10.5607 16.0359C11.631 17.2133 13.1253 17.9173 14.7147 17.9931C15.9672 18.0528 17.1979 17.7185 18.2396 17.0504L20.0789 19.0736C18.4658 19.6975 16.7455 20.013 15.008 19.9992L15 19.9992C10.3325 19.9992 7.07323 17.9085 4.95707 15.7925C3.8961 14.7317 3.1285 13.6691 2.62746 12.8734C2.40469 12.5196 2.23576 12.2204 2.11811 12.0001C2.16541 11.9115 2.22103 11.8101 2.28514 11.6974C2.54797 11.2357 2.95172 10.5884 3.50736 9.86323ZM11.0048 11.8098C11.0391 11.0901 11.2665 10.3996 11.6549 9.8071L16.8653 15.5385C16.2385 15.8688 15.5296 16.0296 14.8099 15.9953C13.7503 15.9448 12.7541 15.4755 12.0405 14.6906C11.327 13.9056 10.9544 12.8694 11.0048 11.8098Z" fill="black"/>
<path fill-rule="evenodd" clip-rule="evenodd" d="M15.0008 1.99918C14.0797 1.99771 13.1601 2.07262 12.2513 2.22313C11.7065 2.31338 11.3379 2.82823 11.4282 3.37309C11.5184 3.91796 12.0333 4.2865 12.5781 4.19625C13.378 4.06377 14.1876 3.99785 14.9984 3.99917L15 3.99918C19.6674 3.99918 22.9267 6.09032 25.0429 8.20673C26.1038 9.26783 26.8714 10.3307 27.3725 11.1265C27.5953 11.4804 27.7642 11.7797 27.8819 12.0001C27.7391 12.2675 27.521 12.6506 27.2231 13.1063C26.618 14.0317 25.6915 15.244 24.409 16.3927C23.9976 16.7612 23.9628 17.3934 24.3313 17.8048C24.6998 18.2161 25.332 18.2509 25.7434 17.8825C27.1861 16.5903 28.2215 15.2338 28.897 14.2008C29.2354 13.6832 29.4855 13.2438 29.6528 12.9297C29.7365 12.7726 29.7996 12.6465 29.8428 12.5574C29.8645 12.5128 29.8811 12.4775 29.8929 12.4521L29.907 12.4215L29.9113 12.4119L29.9128 12.4086L29.9133 12.4074C29.9134 12.4071 29.9138 12.4063 29 12.0002L29.9138 12.4063C30.0287 12.1478 30.0287 11.8526 29.9138 11.594L29 12.0002C29.9138 11.594 29.9136 11.5936 29.9134 11.5931L29.9116 11.5891L29.9079 11.5808L29.8959 11.5547C29.8859 11.5331 29.8718 11.5031 29.8537 11.4653C29.8173 11.3898 29.7644 11.283 29.6944 11.1494C29.5546 10.8825 29.3462 10.5077 29.065 10.061C28.5036 9.16916 27.6462 7.98175 26.4571 6.7926C24.0735 4.40865 20.333 1.99943 15.0008 1.99918ZM29 12.0002C28.0862 11.594 28.0863 11.5938 28.0864 11.5936L28.0788 11.61C28.0717 11.6253 28.06 11.6502 28.0435 11.6842C28.0106 11.7521 27.9588 11.8558 27.8875 11.9896L27.8819 12.0001C27.8963 12.027 27.9099 12.0528 27.9227 12.0774C27.9817 12.1899 28.0245 12.2765 28.0516 12.3328C28.0652 12.361 28.0748 12.3815 28.0805 12.394L28.0862 12.4064C28.0861 12.4061 28.0862 12.4063 29 12.0002Z" fill="black"/>
<path d="M16.1295 6.10657C15.5871 6.00242 15.063 6.35767 14.9589 6.90005C14.8547 7.44242 15.21 7.96654 15.7523 8.07068C16.6026 8.23396 17.3771 8.66853 17.9595 9.3092C18.5419 9.94988 18.9009 10.7621 18.9826 11.6241C19.0347 12.1739 19.5227 12.5774 20.0725 12.5253C20.6223 12.4731 21.0258 11.9852 20.9737 11.4353C20.8511 10.1427 20.3128 8.92465 19.4394 7.96388C18.566 7.00311 17.4046 6.35142 16.1295 6.10657Z" fill="black"/>
</svg>
