<svg width="14" height="14" viewBox="0 0 14 14" fill="none" xmlns="http://www.w3.org/2000/svg">
<path d="M7.56195 1.375C7.56195 1.06434 7.31011 0.8125 6.99945 0.8125C6.68879 0.8125 6.43695 1.06434 6.43695 1.375V6.71875C6.43695 7.02941 6.68879 7.28125 6.99945 7.28125C7.31011 7.28125 7.56195 7.02941 7.56195 6.71875V1.375Z" fill="#808080"/>
<path d="M3.93172 2.28447C4.19209 2.11501 4.26579 1.76656 4.09634 1.50619C3.92688 1.24582 3.57844 1.17212 3.31806 1.34157C2.09851 2.13528 1.16809 3.30184 0.665471 4.66737C0.162855 6.0329 0.114958 7.52429 0.528919 8.91925C0.942879 10.3142 1.79653 11.5381 2.96264 12.4084C4.12876 13.2787 5.54489 13.7489 6.99999 13.7489C8.45508 13.7489 9.87122 13.2787 11.0373 12.4084C12.2035 11.5381 13.0571 10.3142 13.4711 8.91928C13.885 7.52432 13.8372 6.03293 13.3345 4.6674C12.8319 3.30187 11.9015 2.13531 10.682 1.34159C10.4216 1.17213 10.0731 1.24583 9.90369 1.5062C9.73423 1.76658 9.80793 2.11502 10.0683 2.28448C11.0846 2.94591 11.8599 3.91804 12.2788 5.05599C12.6976 6.19393 12.7375 7.43676 12.3926 8.59923C12.0476 9.76169 11.3362 10.7816 10.3644 11.5068C9.39268 12.2321 8.21257 12.6239 6.99999 12.6239C5.78741 12.6239 4.6073 12.2321 3.63554 11.5068C2.66378 10.7816 1.9524 9.76167 1.60743 8.5992C1.26247 7.43673 1.30238 6.19391 1.72123 5.05596C2.14007 3.91802 2.91542 2.94589 3.93172 2.28447Z" fill="#808080"/>
</svg>
