<svg width="18" height="12" viewBox="0 0 18 12" fill="none" xmlns="http://www.w3.org/2000/svg">
<path fill-rule="evenodd" clip-rule="evenodd" d="M9 2.6251C7.13604 2.6251 5.625 4.13614 5.625 6.0001C5.625 7.86407 7.13604 9.3751 9 9.3751C10.864 9.3751 12.375 7.86407 12.375 6.0001C12.375 4.13614 10.864 2.6251 9 2.6251ZM6.75 6.0001C6.75 4.75746 7.75736 3.7501 9 3.7501C10.2426 3.7501 11.25 4.75746 11.25 6.0001C11.25 7.24274 10.2426 8.2501 9 8.2501C7.75736 8.2501 6.75 7.24274 6.75 6.0001Z" fill="#808080"/>
<path fill-rule="evenodd" clip-rule="evenodd" d="M9 0.374512C6.0004 0.374512 3.89625 1.72977 2.55536 3.07081C1.88653 3.73971 1.40425 4.40763 1.08843 4.90928C0.930248 5.16054 0.813023 5.37136 0.734374 5.52153C0.695029 5.59665 0.665274 5.65671 0.644818 5.6992C0.634588 5.72045 0.626677 5.73732 0.62105 5.74949L0.614314 5.76419L0.612221 5.76883L0.611491 5.77046L0.611205 5.7711C0.611205 5.7711 0.610972 5.77163 1.125 6.00006L0.610972 5.77163C0.546336 5.91707 0.546343 6.08309 0.61099 6.22853L1.125 6.00006C0.61099 6.22853 0.611224 6.22906 0.611224 6.22906L0.611509 6.2297L0.612239 6.23133L0.614333 6.23597L0.62107 6.25067C0.626697 6.26284 0.634608 6.27971 0.644839 6.30095C0.665296 6.34343 0.695051 6.40349 0.734397 6.47859C0.813048 6.62873 0.930275 6.83951 1.08846 7.09072C1.40428 7.59227 1.88657 8.26005 2.5554 8.92881C3.89631 10.2696 6.00045 11.6245 9 11.6245C11.9996 11.6245 14.1037 10.2696 15.4446 8.92881C16.1134 8.26005 16.5957 7.59227 16.9115 7.09072C17.0697 6.83951 17.187 6.62873 17.2656 6.47859C17.3049 6.40349 17.3347 6.34343 17.3552 6.30095C17.3654 6.27971 17.3733 6.26284 17.3789 6.25067L17.3857 6.23597L17.3878 6.23133L17.3885 6.2297L17.3888 6.22906C17.3888 6.22906 17.389 6.22853 16.875 6.00006L17.389 6.22853C17.4537 6.08309 17.4537 5.91707 17.389 5.77163L16.875 6.00006C17.389 5.77163 17.3888 5.7711 17.3888 5.7711L17.3878 5.76883L17.3857 5.76419L17.379 5.74949C17.3733 5.73732 17.3654 5.72045 17.3552 5.6992C17.3347 5.65671 17.305 5.59665 17.2656 5.52153C17.187 5.37136 17.0698 5.16054 16.9116 4.90928C16.5958 4.40763 16.1135 3.73971 15.4446 3.07081C14.1037 1.72977 11.9996 0.374512 9 0.374512ZM2.04047 5.50864C1.91515 5.70771 1.82012 5.87606 1.75394 6.00003C1.82011 6.12397 1.91514 6.29227 2.04044 6.49126C2.32228 6.93883 2.75406 7.53654 3.35085 8.13327C4.54119 9.32348 6.37455 10.4995 9 10.4995C11.6254 10.4995 13.4588 9.32348 14.6491 8.13327C15.2459 7.53654 15.6777 6.93883 15.9596 6.49126C16.0849 6.29227 16.1799 6.12397 16.2461 6.00003C16.1799 5.87606 16.0848 5.70771 15.9595 5.50864C15.6777 5.06097 15.2459 4.46313 14.6491 3.86626C13.4588 2.67578 11.6254 1.49951 9 1.49951C6.3746 1.49951 4.54125 2.67578 3.35089 3.86626C2.75409 4.46313 2.32231 5.06097 2.04047 5.50864Z" fill="#808080"/>
</svg>
