<svg width="80" height="80" viewBox="0 0 80 80" fill="none" xmlns="http://www.w3.org/2000/svg">
<path d="M37.0639 2.13012C38.8151 0.859607 41.1849 0.859607 42.9361 2.13012L46.1062 4.42998C47.2092 5.23013 48.5909 5.5455 49.9317 5.30313L53.7858 4.60648C55.9148 4.22163 58.0499 5.24982 59.0765 7.15435L60.9348 10.6019C61.5813 11.8014 62.6893 12.685 64.0026 13.0484L67.7772 14.093C69.8624 14.67 71.34 16.5227 71.4385 18.6841L71.6169 22.5965C71.679 23.9577 72.2939 25.2346 73.3194 26.1318L76.2671 28.7106C77.8954 30.1353 78.4227 32.4456 77.5738 34.4357L76.037 38.0381C75.5023 39.2914 75.5023 40.7086 76.037 41.9619L77.5738 45.5643C78.4227 47.5544 77.8954 49.8647 76.2671 51.2894L73.3194 53.8682C72.2939 54.7654 71.679 56.0423 71.6169 57.4035L71.4385 61.3159C71.34 63.4773 69.8624 65.33 67.7772 65.907L64.0026 66.9516C62.6893 67.315 61.5813 68.1986 60.9348 69.3981L59.0765 72.8456C58.0499 74.7502 55.9148 75.7784 53.7858 75.3935L49.9317 74.6969C48.5909 74.4545 47.2091 74.7699 46.1062 75.57L42.9361 77.8699C41.1849 79.1404 38.8151 79.1404 37.0639 77.8699L33.8938 75.57C32.7909 74.7699 31.4091 74.4545 30.0683 74.6969L26.2142 75.3935C24.0852 75.7784 21.9501 74.7502 20.9235 72.8456L19.0652 69.3981C18.4187 68.1986 17.3107 67.315 15.9974 66.9516L12.2228 65.907C10.1376 65.33 8.66005 63.4773 8.56149 61.3159L8.38307 57.4035C8.32099 56.0423 7.70607 54.7654 6.68056 53.8682L3.73294 51.2894C2.1046 49.8647 1.57728 47.5544 2.42624 45.5643L3.96303 41.9619C4.4977 40.7086 4.4977 39.2914 3.96303 38.0381L2.42624 34.4357C1.57728 32.4456 2.1046 30.1353 3.73294 28.7106L6.68056 26.1318C7.70608 25.2346 8.32099 23.9577 8.38307 22.5965L8.56149 18.6841C8.66005 16.5227 10.1376 14.67 12.2228 14.093L15.9974 13.0484C17.3107 12.685 18.4187 11.8014 19.0652 10.6019L20.9235 7.15435C21.9501 5.24982 24.0852 4.22163 26.2142 4.60648L30.0683 5.30313C31.4091 5.5455 32.7908 5.23013 33.8938 4.42998L37.0639 2.13012Z" fill="#2FDD89"/>
<path d="M50.9754 34.101C51.3415 33.7349 51.3415 33.1413 50.9754 32.7752C50.6093 32.4091 50.0157 32.4091 49.6496 32.7752L37.1875 45.2367L31.2879 39.3377C30.9218 38.9716 30.3282 38.9716 29.9621 39.3377C29.596 39.7039 29.596 40.2975 29.9621 40.6636L36.5246 47.2255C36.8907 47.5915 37.4843 47.5915 37.8504 47.2255L50.9754 34.101Z" fill="#F7F7F7"/>
</svg>
